<?xml version="1.0" encoding="utf-8"?>
<!-- Generator: Adobe Illustrator 19.2.0, SVG Export Plug-In . SVG Version: 6.00 Build 0)  -->
<!DOCTYPE svg PUBLIC "-//W3C//DTD SVG 1.1//EN" "http://www.w3.org/Graphics/SVG/1.1/DTD/svg11.dtd">
<svg version="1.1" id="Layer_1" xmlns="http://www.w3.org/2000/svg" xmlns:xlink="http://www.w3.org/1999/xlink" x="0px" y="0px"
	 viewBox="0 0 58 58" style="enable-background:new 0 0 58 58;" xml:space="preserve">
<style type="text/css">
	.st0{fill:#B6E2EF;stroke:#60564B;stroke-miterlimit:10;}
	.st1{fill:#464146;stroke:#464146;stroke-width:0.5;stroke-miterlimit:10;}
</style>
<g>
	<path class="st0" d="M52.7,55.7H5.3c-1.7,0-3-1.3-3-3V5.3c0-1.7,1.3-3,3-3h47.5c1.7,0,3,1.3,3,3v47.5
		C55.7,54.4,54.4,55.7,52.7,55.7z"/>
</g>
<g>
	<path class="st1" d="M20.7,18.5c0.8,0,1.6,0.1,2.2,0.4s1.2,0.7,1.6,1.2s0.8,1.2,1,1.9s0.3,1.6,0.3,2.6c0,2-0.5,3.6-1.4,4.6
		c-0.9,1.1-2.2,1.6-3.9,1.6c-1.7,0-3-0.5-3.9-1.6c-0.9-1.1-1.4-2.6-1.4-4.6c0-2,0.5-3.5,1.4-4.6S19,18.5,20.7,18.5z M20.6,19.8
		c-2,0-2.9,1.7-2.9,5c0,1.6,0.2,2.8,0.7,3.7s1.2,1.2,2.2,1.2c1,0,1.7-0.4,2.2-1.2s0.8-2,0.8-3.7c0-1.7-0.3-2.9-0.8-3.7
		S21.7,19.8,20.6,19.8z M37.9,18.7L22.1,41.9h-1.9L36,18.7H37.9z M37.5,29.6c1.7,0,3,0.5,3.9,1.6s1.3,2.6,1.3,4.7
		c0,1.9-0.5,3.4-1.4,4.5S39.1,42,37.4,42c-1.7,0-3-0.5-3.9-1.6s-1.4-2.6-1.4-4.6c0-2,0.5-3.5,1.4-4.6S35.8,29.6,37.5,29.6z
		 M37.4,30.9c-1,0-1.7,0.4-2.2,1.3s-0.7,2.1-0.7,3.7c0,1.6,0.3,2.8,0.8,3.6s1.3,1.2,2.2,1.2s1.8-0.4,2.3-1.2s0.8-2,0.8-3.6
		c0-1.7-0.3-3-0.8-3.8S38.5,30.9,37.4,30.9z"/>
</g>
</svg>
